<svg width="178" height="19" viewBox="0 0 178 19" fill="none" xmlns="http://www.w3.org/2000/svg">
<path d="M11.362 14.734H4.669L3.519 18H0.782L6.509 1.992H9.545L15.272 18H12.512L11.362 14.734ZM10.626 12.595L8.027 5.166L5.405 12.595H10.626ZM20.3841 0.98V18H17.7621V0.98H20.3841ZM28.4266 18.207C27.4299 18.207 26.5329 18.0307 25.7356 17.678C24.9536 17.31 24.3326 16.8193 23.8726 16.206C23.4126 15.5773 23.1672 14.8797 23.1366 14.113H25.8506C25.8966 14.6497 26.1496 15.102 26.6096 15.47C27.0849 15.8227 27.6752 15.999 28.3806 15.999C29.1166 15.999 29.6839 15.861 30.0826 15.585C30.4966 15.2937 30.7036 14.9257 30.7036 14.481C30.7036 14.0057 30.4736 13.653 30.0136 13.423C29.5689 13.193 28.8559 12.94 27.8746 12.664C26.9239 12.4033 26.1496 12.1503 25.5516 11.905C24.9536 11.6597 24.4322 11.284 23.9876 10.778C23.5582 10.272 23.3436 9.605 23.3436 8.777C23.3436 8.10233 23.5429 7.489 23.9416 6.937C24.3402 6.36967 24.9076 5.925 25.6436 5.603C26.3949 5.281 27.2536 5.12 28.2196 5.12C29.6609 5.12 30.8186 5.488 31.6926 6.224C32.5819 6.94467 33.0572 7.93367 33.1186 9.191H30.4966C30.4506 8.62367 30.2206 8.17133 29.8066 7.834C29.3926 7.49667 28.8329 7.328 28.1276 7.328C27.4376 7.328 26.9086 7.45833 26.5406 7.719C26.1726 7.97967 25.9886 8.32467 25.9886 8.754C25.9886 9.09133 26.1112 9.375 26.3566 9.605C26.6019 9.835 26.9009 10.019 27.2536 10.157C27.6062 10.2797 28.1276 10.4407 28.8176 10.64C29.7376 10.8853 30.4889 11.1383 31.0716 11.399C31.6696 11.6443 32.1832 12.0123 32.6126 12.503C33.0419 12.9937 33.2642 13.6453 33.2796 14.458C33.2796 15.1787 33.0802 15.8227 32.6816 16.39C32.2829 16.9573 31.7156 17.402 30.9796 17.724C30.2589 18.046 29.4079 18.207 28.4266 18.207ZM41.6097 18.207C40.4137 18.207 39.3327 17.9387 38.3667 17.402C37.4007 16.85 36.6417 16.0833 36.0897 15.102C35.5377 14.1053 35.2617 12.9553 35.2617 11.652C35.2617 10.364 35.5454 9.22167 36.1127 8.225C36.68 7.22833 37.4544 6.46167 38.4357 5.925C39.417 5.38833 40.5134 5.12 41.7247 5.12C42.936 5.12 44.0324 5.38833 45.0137 5.925C45.995 6.46167 46.7694 7.22833 47.3367 8.225C47.904 9.22167 48.1877 10.364 48.1877 11.652C48.1877 12.94 47.8964 14.0823 47.3137 15.079C46.731 16.0757 45.9337 16.85 44.9217 17.402C43.925 17.9387 42.821 18.207 41.6097 18.207ZM41.6097 15.93C42.2844 15.93 42.913 15.769 43.4957 15.447C44.0937 15.125 44.5767 14.642 44.9447 13.998C45.3127 13.354 45.4967 12.572 45.4967 11.652C45.4967 10.732 45.3204 9.95767 44.9677 9.329C44.615 8.685 44.1474 8.202 43.5647 7.88C42.982 7.558 42.3534 7.397 41.6787 7.397C41.004 7.397 40.3754 7.558 39.7927 7.88C39.2254 8.202 38.773 8.685 38.4357 9.329C38.0984 9.95767 37.9297 10.732 37.9297 11.652C37.9297 13.0167 38.2747 14.0747 38.9647 14.826C39.67 15.562 40.5517 15.93 41.6097 15.93ZM62.0673 7.466H59.7213V18H57.0763V7.466H55.5813V5.327H57.0763V4.43C57.0763 2.97333 57.4596 1.91533 58.2263 1.256C59.0083 0.581333 60.2273 0.244 61.8833 0.244V2.429C61.086 2.429 60.5263 2.58233 60.2043 2.889C59.8823 3.18033 59.7213 3.694 59.7213 4.43V5.327H62.0673V7.466ZM65.725 3.648C65.2497 3.648 64.851 3.487 64.529 3.165C64.207 2.843 64.046 2.44433 64.046 1.969C64.046 1.49367 64.207 1.095 64.529 0.773C64.851 0.450999 65.2497 0.289999 65.725 0.289999C66.185 0.289999 66.576 0.450999 66.898 0.773C67.22 1.095 67.381 1.49367 67.381 1.969C67.381 2.44433 67.22 2.843 66.898 3.165C66.576 3.487 66.185 3.648 65.725 3.648ZM67.013 5.327V18H64.391V5.327H67.013ZM76.8495 5.12C77.8461 5.12 78.7355 5.327 79.5175 5.741C80.3148 6.155 80.9358 6.76833 81.3805 7.581C81.8251 8.39367 82.0475 9.375 82.0475 10.525V18H79.4485V10.916C79.4485 9.78133 79.1648 8.915 78.5975 8.317C78.0301 7.70367 77.2558 7.397 76.2745 7.397C75.2931 7.397 74.5111 7.70367 73.9285 8.317C73.3611 8.915 73.0775 9.78133 73.0775 10.916V18H70.4555V5.327H73.0775V6.776C73.5068 6.25467 74.0511 5.84833 74.7105 5.557C75.3851 5.26567 76.0981 5.12 76.8495 5.12ZM84.518 11.606C84.518 10.3333 84.7787 9.20633 85.3 8.225C85.8367 7.24367 86.5573 6.48467 87.462 5.948C88.382 5.396 89.4017 5.12 90.521 5.12C91.349 5.12 92.1617 5.304 92.959 5.672C93.7717 6.02467 94.4157 6.5 94.891 7.098V0.98H97.536V18H94.891V16.091C94.4617 16.7043 93.8637 17.2103 93.097 17.609C92.3457 18.0077 91.4793 18.207 90.498 18.207C89.394 18.207 88.382 17.931 87.462 17.379C86.5573 16.8117 85.8367 16.0297 85.3 15.033C84.7787 14.021 84.518 12.8787 84.518 11.606ZM94.891 11.652C94.891 10.778 94.707 10.019 94.339 9.375C93.9863 8.731 93.5187 8.24033 92.936 7.903C92.3533 7.56567 91.7247 7.397 91.05 7.397C90.3753 7.397 89.7467 7.56567 89.164 7.903C88.5813 8.225 88.106 8.708 87.738 9.352C87.3853 9.98067 87.209 10.732 87.209 11.606C87.209 12.48 87.3853 13.2467 87.738 13.906C88.106 14.5653 88.5813 15.0713 89.164 15.424C89.762 15.7613 90.3907 15.93 91.05 15.93C91.7247 15.93 92.3533 15.7613 92.936 15.424C93.5187 15.0867 93.9863 14.596 94.339 13.952C94.707 13.2927 94.891 12.526 94.891 11.652ZM122.295 5.12C123.292 5.12 124.181 5.327 124.963 5.741C125.761 6.155 126.382 6.76833 126.826 7.581C127.286 8.39367 127.516 9.375 127.516 10.525V18H124.917V10.916C124.917 9.78133 124.634 8.915 124.066 8.317C123.499 7.70367 122.725 7.397 121.743 7.397C120.762 7.397 119.98 7.70367 119.397 8.317C118.83 8.915 118.546 9.78133 118.546 10.916V18H115.947V10.916C115.947 9.78133 115.664 8.915 115.096 8.317C114.529 7.70367 113.755 7.397 112.773 7.397C111.792 7.397 111.01 7.70367 110.427 8.317C109.86 8.915 109.576 9.78133 109.576 10.916V18H106.954V5.327H109.576V6.776C110.006 6.25467 110.55 5.84833 111.209 5.557C111.869 5.26567 112.574 5.12 113.325 5.12C114.337 5.12 115.242 5.33467 116.039 5.764C116.837 6.19333 117.45 6.81433 117.879 7.627C118.263 6.86033 118.861 6.25467 119.673 5.81C120.486 5.35 121.36 5.12 122.295 5.12ZM142.468 11.353C142.468 11.8283 142.437 12.2577 142.376 12.641H132.693C132.77 13.653 133.145 14.4657 133.82 15.079C134.495 15.6923 135.323 15.999 136.304 15.999C137.715 15.999 138.711 15.4087 139.294 14.228H142.123C141.74 15.3933 141.042 16.3517 140.03 17.103C139.033 17.839 137.791 18.207 136.304 18.207C135.093 18.207 134.004 17.9387 133.038 17.402C132.087 16.85 131.336 16.0833 130.784 15.102C130.247 14.1053 129.979 12.9553 129.979 11.652C129.979 10.3487 130.24 9.20633 130.761 8.225C131.298 7.22833 132.041 6.46167 132.992 5.925C133.958 5.38833 135.062 5.12 136.304 5.12C137.5 5.12 138.566 5.38067 139.501 5.902C140.436 6.42333 141.165 7.15933 141.686 8.11C142.207 9.04533 142.468 10.1263 142.468 11.353ZM139.731 10.525C139.716 9.559 139.371 8.78467 138.696 8.202C138.021 7.61933 137.186 7.328 136.189 7.328C135.284 7.328 134.51 7.61933 133.866 8.202C133.222 8.76933 132.839 9.54367 132.716 10.525H139.731ZM156.52 18.207C155.324 18.207 154.243 17.9387 153.277 17.402C152.311 16.85 151.552 16.0833 151 15.102C150.448 14.1053 150.172 12.9553 150.172 11.652C150.172 10.364 150.456 9.22167 151.023 8.225C151.59 7.22833 152.365 6.46167 153.346 5.925C154.327 5.38833 155.424 5.12 156.635 5.12C157.846 5.12 158.943 5.38833 159.924 5.925C160.905 6.46167 161.68 7.22833 162.247 8.225C162.814 9.22167 163.098 10.364 163.098 11.652C163.098 12.94 162.807 14.0823 162.224 15.079C161.641 16.0757 160.844 16.85 159.832 17.402C158.835 17.9387 157.731 18.207 156.52 18.207ZM156.52 15.93C157.195 15.93 157.823 15.769 158.406 15.447C159.004 15.125 159.487 14.642 159.855 13.998C160.223 13.354 160.407 12.572 160.407 11.652C160.407 10.732 160.231 9.95767 159.878 9.329C159.525 8.685 159.058 8.202 158.475 7.88C157.892 7.558 157.264 7.397 156.589 7.397C155.914 7.397 155.286 7.558 154.703 7.88C154.136 8.202 153.683 8.685 153.346 9.329C153.009 9.95767 152.84 10.732 152.84 11.652C152.84 13.0167 153.185 14.0747 153.875 14.826C154.58 15.562 155.462 15.93 156.52 15.93ZM172.084 5.12C173.081 5.12 173.97 5.327 174.752 5.741C175.549 6.155 176.17 6.76833 176.615 7.581C177.06 8.39367 177.282 9.375 177.282 10.525V18H174.683V10.916C174.683 9.78133 174.399 8.915 173.832 8.317C173.265 7.70367 172.49 7.397 171.509 7.397C170.528 7.397 169.746 7.70367 169.163 8.317C168.596 8.915 168.312 9.78133 168.312 10.916V18H165.69V5.327H168.312V6.776C168.741 6.25467 169.286 5.84833 169.945 5.557C170.62 5.26567 171.333 5.12 172.084 5.12Z" fill="black"/>
</svg>
