<?xml version="1.0" encoding="utf-8"?>
<!-- Generator: Adobe Illustrator 18.1.0, SVG Export Plug-In . SVG Version: 6.00 Build 0)  -->
<svg version="1.1" id="Layer_1" xmlns="http://www.w3.org/2000/svg" xmlns:xlink="http://www.w3.org/1999/xlink" x="0px" y="0px"
	 viewBox="0 0 500 500" enable-background="new 0 0 500 500" xml:space="preserve">
<path fill="#010101" d="M480.5,153.6c-12.6-29.7-30.6-56.5-53.6-79.5c-23-23-49.6-41-79.5-53.6c-30.9-13-63.5-19.6-97.3-19.6
	c-33.7,0-66.5,6.6-97.3,19.6c-29.7,12.6-56.5,30.6-79.5,53.6s-41,49.6-53.6,79.5c-13,30.9-19.6,63.5-19.6,97.3
	c0,33.7,6.6,66.5,19.6,97.3c12.6,29.7,30.6,56.5,53.6,79.5c23,23,49.6,41,79.5,53.6c30.9,13,63.5,19.6,97.3,19.6
	c33.7,0,66.5-6.6,97.3-19.6c29.7-12.6,56.5-30.6,79.5-53.6c23-23,41-49.6,53.6-79.5c13-30.9,19.6-63.5,19.6-97.3
	S493.5,184.3,480.5,153.6z M250.2,36.8c54.2,0,103.6,20.2,141.4,53.4c-24.3,35.4-65.9,60.2-112.3,77.3
	C258,129,231.5,87.3,198.9,43.1C215.3,39,232.5,36.8,250.2,36.8z M159.4,57c12.3,15.5,44.8,58.7,79.5,123.4
	c-85.6,23.4-175.2,26.1-198.2,26.3C54.7,140.4,99.5,85.2,159.4,57z M36.1,250.8c0-2.6,0-5.4,0.1-8.1c93.2,1.3,165.3-10.7,220.1-28
	c5.6,11.6,11.1,23.6,16.5,36C156.1,283.7,103,370,90.7,393.3C56.7,355.6,36.1,305.5,36.1,250.8z M250.2,464.9
	c-49.2,0-94.4-16.7-130.6-44.5c49.8-78.6,110.5-117.4,167.6-134.8c18.9,48.3,35.6,102.9,46.5,162.3
	C308.1,458.9,279.8,464.9,250.2,464.9z M369.1,428.7c-1-15.4-6.6-70.6-38.5-152.8c57.8-8.2,107.3,2.3,131,9.1
	C451.9,344.7,417.4,396.4,369.1,428.7z M316.4,241.8c-5.9-13.3-12.4-27.2-19.8-41.7c73.6-31.2,107-70.7,118-86.4
	c30.6,36.6,49.2,83.4,49.8,134.5C407.6,236.6,358.6,235.7,316.4,241.8z"/>
</svg>
