<svg width="205" height="59" viewBox="0 0 205 59" fill="none" xmlns="http://www.w3.org/2000/svg">
<path d="M13.64 57.72C12.728 57.72 11.84 57.072 10.976 55.776V55.56C10.832 53.016 10.4 50.184 9.68 47.064C8.96 43.944 7.904 40.176 6.512 35.76C5.456 32.448 4.568 29.472 3.848 26.832V55.2C3.848 55.968 3.704 56.544 3.416 56.928C3.176 57.264 2.672 57.432 1.904 57.432C1.328 57.432 0.872 57.264 0.536 56.928C0.2 56.544 0.0320001 56.064 0.0320001 55.488V54.912L0.176 33.744C0.272 27.504 0.32 20.472 0.32 12.648V3.792C0.32 3.216 0.44 2.832 0.68 2.64C0.92 2.4 1.424 2.28 2.192 2.28C3.392 2.28 4.496 2.52 5.504 3C6.512 3.432 7.376 4.056 8.096 4.872C9.584 6.552 10.544 8.568 10.976 10.92C11.168 11.88 11.264 12.984 11.264 14.232C11.264 14.952 11.192 15.744 11.048 16.608C10.952 17.472 10.88 18.024 10.832 18.264C10.736 18.744 10.52 19.464 10.184 20.424C9.848 21.384 9.632 22.008 9.536 22.296L8.672 24.312L7.952 26.184C8 27.912 8.288 30.096 8.816 32.736C9.392 35.376 10.016 37.824 10.688 40.08C11.168 41.664 12.032 44.304 13.28 48L15.368 54.336V54.48C15.368 55.296 15.296 55.992 15.152 56.568C15.008 57.336 14.504 57.72 13.64 57.72ZM3.704 23.592C4.376 22.92 5.192 21.984 6.152 20.784L7.232 14.592C7.28 14.352 7.304 14.016 7.304 13.584C7.304 12.192 7.04 10.584 6.512 8.76C6.224 7.896 5.84 7.176 5.36 6.6C4.928 5.976 4.472 5.64 3.992 5.592L3.848 12.792C3.704 16.008 3.632 18.504 3.632 20.28C3.632 21.96 3.656 23.064 3.704 23.592ZM38.1965 58.224C37.0925 58.224 35.9165 57.024 34.6685 54.624C32.7965 51.024 30.9485 45.096 29.1245 36.84C28.5965 34.584 28.1645 32.496 27.8285 30.576C26.1005 34.032 25.2365 38.208 25.2365 43.104V56.424C25.2365 57.528 24.7565 58.08 23.7965 58.08C23.0765 58.08 22.4765 57.864 21.9965 57.432C21.5645 57.048 21.3485 56.496 21.3485 55.776V33.96C21.3485 31.848 21.5885 27.96 22.0685 22.296C22.5485 17.352 22.7885 13.464 22.7885 10.632C23.1725 9.72 23.8685 9.264 24.8765 9.264C25.5005 9.264 26.0285 9.48 26.4605 9.912C26.8925 10.344 27.1085 10.872 27.1085 11.496V11.712C26.4845 12.768 26.1725 17.136 26.1725 24.816V27.408L28.8365 22.152C30.4685 18.744 32.0045 15.816 33.4445 13.368C34.7885 10.968 35.7725 9.768 36.3965 9.768C37.1645 9.768 37.8125 9.936 38.3405 10.272C38.9165 10.608 39.2045 11.088 39.2045 11.712L37.4765 14.592C33.8765 20.4 31.8605 23.76 31.4285 24.672C31.4285 25.488 31.4045 26.208 31.3565 26.832L31.2845 28.992C31.2845 31.056 32.1005 34.92 33.7325 40.584C35.4125 46.2 36.8045 49.92 37.9085 51.744L38.8445 53.04C39.7565 54.288 40.2125 55.392 40.2125 56.352C40.2125 56.88 39.9965 57.312 39.5645 57.648C39.1805 58.032 38.7245 58.224 38.1965 58.224ZM49.9764 57.144C49.0164 57.144 48.1764 56.928 47.4564 56.496C46.7844 56.064 46.4484 55.464 46.4484 54.696C47.5044 53.64 48.0324 50.832 48.0324 46.272C48.0324 43.536 47.8164 39.552 47.3844 34.32C46.9044 29.328 46.6644 25.392 46.6644 22.512L46.8084 18.552C46.8564 17.4 46.8804 16.08 46.8804 14.592C46.8804 13.248 46.6404 11.544 46.1604 9.48C45.5844 7.32 45.2964 5.808 45.2964 4.944C45.2964 3.264 47.1444 2.424 50.8404 2.424H51.9204C54.5124 2.424 56.7684 3.216 58.6884 4.8C60.2244 6.144 61.5204 8.088 62.5764 10.632C63.2964 12.36 63.9204 14.76 64.4484 17.832C64.7364 20.52 64.8804 22.632 64.8804 24.168V26.472V29.856C64.7844 30.048 64.7364 30.24 64.7364 30.432C64.7364 30.816 64.7604 31.104 64.8084 31.296C64.8564 31.488 64.8804 31.728 64.8804 32.016C64.8804 33.552 64.6404 35.4 64.1604 37.56C63.7284 39.672 63.0804 41.832 62.2164 44.04C60.0564 49.32 57.6324 53.064 54.9444 55.272C53.3604 56.52 51.7044 57.144 49.9764 57.144ZM51.4884 52.968C53.2644 51.864 54.8244 50.28 56.1684 48.216C57.5124 46.104 58.5444 43.776 59.2644 41.232C60.5604 36.528 61.2084 31.776 61.2084 26.976C61.2084 24.384 60.9684 21.552 60.4884 18.48C59.9604 15.504 58.8324 12.816 57.1044 10.416C56.2884 9.264 55.2564 8.376 54.0084 7.752C52.7604 7.08 51.3444 6.744 49.7604 6.744V6.816C49.7604 11.136 50.0484 17.664 50.6244 26.4C51.2004 35.088 51.4884 41.664 51.4884 46.128V52.968ZM77.6896 57.432C76.7776 57.432 75.9856 57.312 75.3136 57.072C74.4976 56.832 74.0896 56.16 74.0896 55.056V13.224C74.0896 12.408 73.9456 11.184 73.6576 9.552C73.3216 8.064 73.1536 6.84 73.1536 5.88V5.664C73.9696 4.32 74.5696 3.456 74.9536 3.072C75.6256 3.072 76.5136 2.976 77.6176 2.784C78.6256 2.592 79.5136 2.496 80.2816 2.496C81.0496 2.496 81.7936 2.736 82.5136 3.216C83.2336 3.648 83.5936 4.176 83.5936 4.8C83.5936 6.24 82.4896 6.96 80.2816 6.96H79.2736C78.9856 6.912 78.6496 6.888 78.2656 6.888C77.8336 6.888 77.5696 6.912 77.4736 6.96C77.4736 8.592 77.5696 10.56 77.7616 12.864L77.9056 14.88L78.0496 18.84C78.0496 19.752 77.9776 21.144 77.8336 23.016L77.6896 27.048L78.6976 26.832C79.6576 26.544 80.4496 26.4 81.0736 26.4C81.6016 26.4 82.0816 26.616 82.5136 27.048C82.9456 27.432 83.1616 27.888 83.1616 28.416C83.1616 28.992 82.9696 29.52 82.5856 30C82.2496 30.432 81.8176 30.648 81.2896 30.648L80.4256 30.576H79.4896C78.7696 30.576 78.2656 30.744 77.9776 31.08V53.328L82.0096 53.112C84.7456 53.112 86.1136 53.736 86.1136 54.984V55.272C85.8256 55.848 85.2976 56.328 84.5296 56.712C83.7616 57.048 83.0176 57.264 82.2976 57.36L79.9216 57.432H77.6896ZM97.7287 58.584C96.0007 58.584 94.5127 58.272 93.2647 57.648C92.4967 57.216 92.1127 56.712 92.1127 56.136C92.1127 55.56 92.2567 55.104 92.5447 54.768C92.8327 54.384 93.2407 54.192 93.7687 54.192C94.2487 54.192 94.9447 54.384 95.8567 54.768C96.8647 55.152 97.4887 55.344 97.7287 55.344C98.6407 55.344 99.4567 54.96 100.177 54.192C100.945 53.376 101.545 52.32 101.977 51.024C102.841 48.624 103.273 46.464 103.273 44.544C103.273 42.48 102.937 40.32 102.265 38.064C101.641 35.76 100.777 33.528 99.6727 31.368L98.5207 29.064C97.3207 26.664 96.3847 24.768 95.7127 23.376C95.0887 21.984 94.5367 20.472 94.0567 18.84C93.3367 16.536 92.9767 14.304 92.9767 12.144C92.9767 10.416 93.2647 8.784 93.8407 7.248C94.4647 5.712 95.3767 4.416 96.5767 3.36C97.7767 2.208 99.2647 1.632 101.041 1.632C101.905 1.632 102.745 1.896 103.561 2.424C104.377 2.904 104.953 3.528 105.289 4.296L104.065 5.808C102.817 5.808 101.881 5.568 101.257 5.088C100.393 5.184 99.6247 5.616 98.9527 6.384C98.3287 7.104 97.8487 7.944 97.5127 8.904C97.2247 9.816 97.0807 10.728 97.0807 11.64C97.0807 13.464 97.3207 15.336 97.8007 17.256C98.3287 19.128 99.0007 20.904 99.8167 22.584L104.857 32.664C105.673 34.392 106.321 36.336 106.801 38.496C107.281 40.656 107.521 42.816 107.521 44.976C107.521 48.144 106.753 51.12 105.217 53.904C104.401 55.344 103.345 56.472 102.049 57.288C100.753 58.152 99.3127 58.584 97.7287 58.584ZM120.239 56.928C116.111 56.928 114.047 56.208 114.047 54.768C114.047 53.616 114.767 53.04 116.207 53.04H117.071C117.263 53.088 117.479 53.112 117.719 53.112C118.103 53.112 118.367 52.992 118.511 52.752C118.703 52.512 118.799 52.08 118.799 51.456C118.799 47.376 118.559 41.808 118.079 34.752C117.647 27.408 117.431 21.864 117.431 18.12C117.431 16.776 117.455 15.552 117.503 14.448L117.575 10.776C117.575 9.192 117.503 7.872 117.359 6.816C116.831 7.008 116.279 7.104 115.703 7.104C114.599 7.104 114.047 6.528 114.047 5.376C114.047 4.8 114.383 4.296 115.055 3.864C115.775 3.432 116.687 3.12 117.791 2.928C119.807 2.592 121.511 2.424 122.903 2.424C123.479 2.424 123.959 2.616 124.343 3C124.775 3.384 124.991 3.84 124.991 4.368C124.991 4.896 124.823 5.352 124.487 5.736C124.199 6.12 123.815 6.312 123.335 6.312C123.047 6.312 122.807 6.288 122.615 6.24H122.039C121.559 6.24 121.199 6.36 120.959 6.6C120.767 6.792 120.671 7.176 120.671 7.752C120.671 12.84 120.983 19.848 121.607 28.776C122.183 38.136 122.471 45.168 122.471 49.872V52.608C122.807 52.56 123.287 52.536 123.911 52.536C125.927 52.536 126.935 53.376 126.935 55.056V55.488L125.135 56.712C125.087 56.712 124.943 56.736 124.703 56.784C124.463 56.784 123.983 56.784 123.263 56.784C121.631 56.88 120.623 56.928 120.239 56.928ZM145.715 58.872C143.075 58.872 140.891 58.08 139.163 56.496C137.771 55.344 136.499 53.376 135.347 50.592C134.627 48.768 134.051 46.2 133.619 42.888C133.283 40.2 133.115 37.656 133.115 35.256C133.067 34.632 133.043 33.552 133.043 32.016V29.568V26.688C133.043 24.624 133.115 22.152 133.259 19.272C133.451 16.824 133.835 14.328 134.411 11.784C135.035 9.288 135.947 7.176 137.147 5.448C138.347 3.624 139.955 2.328 141.971 1.56C143.171 1.224 144.299 1.056 145.355 1.056C147.371 1.056 148.379 1.728 148.379 3.072C148.379 3.6 148.187 4.032 147.803 4.368C147.467 4.656 147.011 4.8 146.435 4.8C146.243 4.8 145.907 4.728 145.427 4.584L144.419 4.44C143.507 4.44 142.691 4.728 141.971 5.304C141.251 5.832 140.651 6.624 140.171 7.68C139.067 9.984 138.323 12.504 137.939 15.24C137.411 18.6 137.123 21.528 137.075 24.024C136.979 26.184 136.931 28.464 136.931 30.864V32.808C136.883 33.48 136.859 34.32 136.859 35.328C136.859 37.776 136.979 40.176 137.219 42.528C137.411 45.312 137.939 47.712 138.803 49.728C139.571 51.984 140.819 53.568 142.547 54.48C143.363 54.96 144.371 55.2 145.571 55.2C147.683 55.2 149.459 54.192 150.899 52.176C150.851 50.496 150.731 48.864 150.539 47.28C150.347 45.648 150.059 44.544 149.675 43.968C149.627 43.968 149.507 43.992 149.315 44.04C149.171 44.04 148.931 44.064 148.595 44.112L146.867 44.256C145.235 44.256 144.419 43.56 144.419 42.168C144.419 41.736 144.659 41.352 145.139 41.016C145.619 40.68 146.267 40.44 147.083 40.296C148.427 39.96 149.627 39.792 150.683 39.792C151.643 39.792 152.387 40.152 152.915 40.872C153.443 41.592 153.707 42.504 153.707 43.608C153.707 45.192 153.947 47.352 154.427 50.088C154.907 52.776 155.147 54.912 155.147 56.496C155.147 57.024 154.979 57.48 154.643 57.864C154.307 58.248 153.899 58.44 153.419 58.44C152.219 58.44 151.403 57.936 150.971 56.928V56.856L149.387 57.648C147.947 58.464 146.723 58.872 145.715 58.872ZM178.698 58.08C177.738 58.08 175.77 53.136 172.794 43.248C169.434 31.68 166.53 21.048 164.082 11.352V34.968C164.082 36.984 164.274 40.416 164.658 45.264C164.994 50.544 165.162 53.952 165.162 55.488C165.162 55.92 164.898 56.304 164.37 56.64C163.842 56.928 163.242 57.072 162.57 57.072C161.562 57.072 161.058 56.688 161.058 55.92L161.202 53.832C161.298 52.296 161.346 51.288 161.346 50.808C161.346 48.264 161.202 44.232 160.914 38.712C160.626 33.096 160.482 29.688 160.482 28.488V19.272C160.482 17.784 160.554 15.576 160.698 12.648C160.89 10.104 160.986 7.896 160.986 6.024V5.592C160.986 3.192 161.514 1.992 162.57 1.992C163.194 1.992 163.986 3.048 164.946 5.16C166.53 8.616 168.546 14.808 170.994 23.736C172.386 28.92 174.018 35.592 175.89 43.752C175.842 43.56 176.226 45.216 177.042 48.72L177.114 49.08C177.114 44.424 177.162 40.248 177.258 36.552L177.402 24.024V2.712C177.594 1.512 178.362 0.911997 179.706 0.911997C181.002 0.911997 181.65 1.848 181.65 3.72V4.152C181.362 4.728 181.218 5.424 181.218 6.24C181.218 9.168 181.146 13.584 181.002 19.488C180.858 25.44 180.786 29.904 180.786 32.88V54.84C180.786 55.608 180.57 56.328 180.138 57C179.754 57.72 179.274 58.08 178.698 58.08ZM194.69 58.584C192.962 58.584 191.474 58.272 190.226 57.648C189.458 57.216 189.074 56.712 189.074 56.136C189.074 55.56 189.218 55.104 189.506 54.768C189.794 54.384 190.202 54.192 190.73 54.192C191.21 54.192 191.906 54.384 192.818 54.768C193.826 55.152 194.45 55.344 194.69 55.344C195.602 55.344 196.418 54.96 197.138 54.192C197.906 53.376 198.506 52.32 198.938 51.024C199.802 48.624 200.234 46.464 200.234 44.544C200.234 42.48 199.898 40.32 199.226 38.064C198.602 35.76 197.738 33.528 196.634 31.368L195.482 29.064C194.282 26.664 193.346 24.768 192.674 23.376C192.05 21.984 191.498 20.472 191.018 18.84C190.298 16.536 189.938 14.304 189.938 12.144C189.938 10.416 190.226 8.784 190.802 7.248C191.426 5.712 192.338 4.416 193.538 3.36C194.738 2.208 196.226 1.632 198.002 1.632C198.866 1.632 199.706 1.896 200.522 2.424C201.338 2.904 201.914 3.528 202.25 4.296L201.026 5.808C199.778 5.808 198.842 5.568 198.218 5.088C197.354 5.184 196.586 5.616 195.914 6.384C195.29 7.104 194.81 7.944 194.474 8.904C194.186 9.816 194.042 10.728 194.042 11.64C194.042 13.464 194.282 15.336 194.762 17.256C195.29 19.128 195.962 20.904 196.778 22.584L201.818 32.664C202.634 34.392 203.282 36.336 203.762 38.496C204.242 40.656 204.482 42.816 204.482 44.976C204.482 48.144 203.714 51.12 202.178 53.904C201.362 55.344 200.306 56.472 199.01 57.288C197.714 58.152 196.274 58.584 194.69 58.584Z" fill="#04FFE1"/>
</svg>
